<?xml version="1.0" encoding="UTF-8" standalone="no"?>
<!-- Created with Inkscape (http://www.inkscape.org/) -->

<svg
   width="1024"
   height="1024"
   viewBox="0 0 1024 1024"
   version="1.1"
   id="svg5"
   inkscape:version="1.2.2 (b0a8486541, 2022-12-01)"
   xml:space="preserve"
   inkscape:export-filename="frohg.png"
   inkscape:export-xdpi="96"
   inkscape:export-ydpi="96"
   sodipodi:docname="logo_square.svg"
   xmlns:inkscape="http://www.inkscape.org/namespaces/inkscape"
   xmlns:sodipodi="http://sodipodi.sourceforge.net/DTD/sodipodi-0.dtd"
   xmlns="http://www.w3.org/2000/svg"
   xmlns:svg="http://www.w3.org/2000/svg"><sodipodi:namedview
     id="namedview7"
     pagecolor="#191919"
     bordercolor="#000000"
     borderopacity="0.25"
     inkscape:showpageshadow="2"
     inkscape:pageopacity="0"
     inkscape:pagecheckerboard="false"
     inkscape:deskcolor="#0f0f0f"
     inkscape:document-units="px"
     showgrid="false"
     inkscape:zoom="0.52549635"
     inkscape:cx="445.29329"
     inkscape:cy="466.22588"
     inkscape:window-width="1920"
     inkscape:window-height="1029"
     inkscape:window-x="1920"
     inkscape:window-y="0"
     inkscape:window-maximized="1"
     inkscape:current-layer="layer3" /><defs
     id="defs2" /><g
     id="g3278"
     transform="matrix(1.9481409,0,0,1.9481409,-336.6025,-720.07239)"><g
       inkscape:groupmode="layer"
       id="layer3"
       inkscape:label="text"><path
         d="m 215.44036,566.46916 q 27.74239,-19.16227 63.20688,-30.31643 35.4645,-11.15415 58.63082,-11.15415 23.16633,0 37.18052,5.14807 14.3002,4.86207 20.59229,12.58418 10.58215,13.15618 10.58215,22.88032 0,11.72616 -16.30223,27.45638 -8.29412,8.00811 -23.45233,17.73225 l -3.14604,1.71602 q -2.00203,0.57201 -2.00203,1.71603 l 1.71602,1.43002 q 11.15416,4.57606 16.87424,10.86815 6.00608,6.29208 6.00608,18.59026 0,16.87423 -15.15821,32.31845 -14.87221,15.15821 -35.17849,24.59634 -20.30628,9.15213 -38.03853,14.58621 -17.73225,5.43407 -25.45436,5.43407 -7.4361,0 -13.44218,-2.00203 -6.00609,-1.71602 -9.72414,-4.29006 -7.72211,-5.43407 -10.86815,-11.15415 -1.14402,-1.43002 -2.00203,-1.43002 -2.00203,0 -7.4361,12.58417 -5.43408,12.58418 -5.72008,12.58418 v -0.286 q -0.85802,2.86004 -2.86004,2.86004 -4.57607,0 -8.86613,-8.58012 -4.00405,-8.29412 -4.00405,-12.87018 0,-4.86207 5.72008,-16.01623 5.72008,-11.44016 11.44016,-19.44827 l 5.72008,-8.00811 q 6.57809,-14.3002 54.34076,-59.77484 47.76266,-45.47463 54.05475,-45.47463 2.86004,0 4.57606,2.00203 2.00203,1.71602 3.14605,5.43407 0,2.28803 -2.57404,3.71805 l -40.32656,43.47261 q -0.57201,1.14402 -0.57201,1.71603 0,0.286 0.85801,0.286 6.29209,0 28.6004,-9.72414 22.30831,-9.72413 43.18661,-23.73833 21.16429,-14.01419 21.16429,-23.16632 0,-10.01014 -40.04056,-10.01014 -25.45435,0 -50.3367,5.72008 -24.59634,5.43407 -42.32859,13.44219 -17.44625,7.7221 -31.46044,16.30222 -14.0142,8.58012 -20.87829,14.87221 -6.8641,6.29209 -6.8641,8.00811 0,1.71603 1.43002,1.71603 9.15213,0 30.03042,-9.72414 21.1643,-10.01014 25.74036,-13.15618 4.57606,-3.43205 5.72008,-3.43205 1.43002,0 2.28803,1.43002 -10.58215,17.44624 -29.17241,29.74442 -18.30425,12.01216 -28.6004,12.01216 -10.29614,0 -17.16024,-8.29411 -6.57809,-8.58012 -6.57809,-14.87221 0,-19.16227 27.74239,-38.03853 z m 155.87218,67.49694 q 0,-2.86004 -3.71805,-4.57606 -3.43205,-1.71603 -7.1501,-2.00203 h -3.71806 q -18.01825,0 -45.76064,8.00811 -9.43813,2.57404 -11.72616,2.57404 -2.28803,0 -4.00405,-1.71603 -1.43002,-1.71602 -2.28804,-3.14604 -0.572,-1.71603 -2.00202,-1.71603 -1.71603,0 -3.71806,2.00203 l -49.47869,66.06693 v 0.286 q 1.43002,2.57404 5.72008,2.57404 h 3.43205 q 21.4503,0 51.19471,-11.72617 29.74442,-12.01217 51.48072,-28.31439 21.73631,-16.58824 21.73631,-28.3144 z"
         style="font-style:normal;font-weight:normal;font-size:286.004px;font-family:'Mr Dafoe';-inkscape-font-specification:'Mr Dafoe';display:inline;fill:#1b98e0;stroke-width:1.50724;stroke-linecap:round;stroke-linejoin:round"
         id="path3404"
         transform="scale(0.95334603,1.0489371)" /><path
         d="m 480.23,532.84518 q 8.29411,-6.86409 18.87626,-6.86409 10.58215,0 10.58215,4.29006 0,1.71602 -2.57404,5.14807 -2.28803,5.14807 -21.4503,38.89654 -50.0507,87.51723 -50.0507,116.68963 0,2.28804 1.14402,2.28804 1.71602,0 5.72008,-5.72008 11.72616,-20.30629 30.03042,-46.61865 18.30426,-26.31237 34.60648,-46.33265 16.30223,-20.02028 36.89452,-37.46653 20.59229,-17.44624 37.46652,-21.7363 28.0284,-4.57606 36.32251,-4.57606 0.85801,0.286 0.85801,1.43002 0,0.85801 -3.14604,2.57403 -32.31845,18.01825 -80.36712,68.64096 -47.76267,50.33671 -86.37321,103.53345 -10.29615,17.44624 -16.01623,21.7363 -5.72007,4.29006 -13.72819,4.29006 -14.8722,0 -14.8722,-31.46044 0,-13.72819 5.43407,-28.02839 20.02028,-53.48275 37.46652,-76.64907 9.72414,-14.3002 9.72414,-15.73022 0,-0.85801 -3.43205,3.43205 -71.21499,89.51925 -100.6734,117.26164 -20.30629,21.16429 -46.04665,43.4726 -25.74036,22.30832 -41.18457,30.60243 -4.86207,4.00406 -10.29615,4.00406 -5.43407,0 -13.15618,-4.57607 -7.72211,-4.57606 -7.72211,-10.58214 0,-3.14605 3.43205,-5.72008 l 46.90465,-39.46856 q 4.29006,-3.71805 5.43408,-3.71805 0.85801,0 0.85801,1.14402 0,0.85801 -0.85801,2.57403 -0.85801,1.71603 -2.57404,3.71806 -2.00202,2.00202 -4.00405,3.71805 l -4.86207,5.14807 q -8.86612,8.86612 -8.86612,9.72414 0,1.14401 0.572,1.14401 0.57201,0 2.86004,-1.71602 27.45639,-18.87627 79.22311,-70.92899 51.76673,-52.33873 89.80526,-94.95333 z"
         style="font-style:normal;font-weight:normal;font-size:286.004px;font-family:'Mr Dafoe';-inkscape-font-specification:'Mr Dafoe';display:inline;fill:#1b98e0;stroke-width:1.50724;stroke-linecap:round;stroke-linejoin:round"
         id="path3407"
         transform="scale(0.95334603,1.0489371)" /><path
         d="m 510.93159,594.3596 q 26.44809,-20.10002 60.25803,-31.80002 33.80993,-11.70001 55.89546,-11.70001 22.08552,0 35.4459,5.4 13.63304,5.1 19.63158,13.20001 10.08844,13.80001 10.08844,24.00002 0,12.3 -15.54166,28.80001 -7.90716,8.40002 -22.35818,18.60002 l -2.99928,1.8 q -1.90861,0.6 -1.90861,1.8 l 1.63596,1.5 q 10.63377,4.8 16.08699,11.40001 5.72587,6.60001 5.72587,19.50001 0,17.70002 -14.45102,33.90002 -14.17836,15.90001 -33.53727,25.80003 -19.35892,9.6 -36.26389,15.3 -16.90496,5.70001 -24.26681,5.70001 -7.08918,0 -12.81506,-2.1 -5.72587,-1.80001 -9.27046,-4.5 -7.36184,-5.70001 -10.36111,-11.70002 -1.09064,-1.5 -1.90862,-1.5 -1.90863,0 -7.08919,13.20002 -5.18055,13.2 -5.45321,13.2 v -0.3 q -0.81798,3 -2.72661,3 -4.36257,0 -8.45248,-9 -3.81726,-8.70001 -3.81726,-13.50001 0,-5.10001 5.45322,-16.80001 5.45322,-12.00001 10.90643,-20.40002 l 5.45322,-8.4 q 6.27119,-15.00001 51.80554,-62.70004 45.53436,-47.70004 51.53289,-47.70004 2.72661,0 4.36257,2.10001 1.90863,1.79999 2.99927,5.7 0,2.4 -2.45394,3.9 l -38.44518,45.60003 q -0.54531,1.2 -0.54531,1.8 0,0.3 0.81798,0.3 5.99854,0 27.26608,-10.2 21.26753,-10.20001 41.17177,-24.90002 20.1769,-14.70001 20.1769,-24.30002 0,-10.50001 -38.17251,-10.50001 -24.26681,0 -47.9883,6.00001 -23.44882,5.70001 -40.35379,14.10001 -16.63231,8.10001 -29.99269,17.10001 -13.36037,9.00001 -19.90423,15.60002 -6.54386,6.59999 -6.54386,8.4 0,1.8 1.36331,1.8 8.72513,0 28.62938,-10.2 20.17689,-10.50001 24.53946,-13.80002 4.36258,-3.6 5.45321,-3.6 1.36331,0 2.1813,1.5 -10.08845,18.30002 -27.8114,31.20002 -17.4503,12.60001 -27.26608,12.60001 -9.81578,0 -16.35965,-8.70001 -6.27119,-9 -6.27119,-15.60001 0,-20.1 26.44809,-39.90002 z m 148.60012,70.80004 q 0,-3 -3.54459,-4.8 -3.27193,-1.8 -6.81652,-2.1 h -3.54459 q -17.17763,0 -43.62572,8.4 -8.99781,2.70001 -11.17909,2.70001 -2.18129,0 -3.81725,-1.8 -1.36331,-1.80001 -2.18129,-3.30001 -0.54532,-1.79999 -1.90863,-1.79999 -1.63596,0 -3.54458,2.1 l -47.17032,69.30004 v 0.3 q 1.36331,2.7 5.45322,2.7 h 3.27193 q 20.44955,0 48.80627,-12.3 28.35673,-12.60001 49.07894,-29.70002 20.72222,-17.40001 20.72222,-29.70003 z"
         style="font-style:normal;font-weight:normal;font-size:286.004px;font-family:'Mr Dafoe';-inkscape-font-specification:'Mr Dafoe';fill:#1b98e0;stroke-width:1.50724;stroke-linecap:round;stroke-linejoin:round"
         id="path3410" /></g><g
       inkscape:label="Layer 1"
       inkscape:groupmode="layer"
       id="layer1"
       style="display:inline"><path
         style="display:inline;fill:#058c42;fill-opacity:1;stroke:#000000;stroke-width:1.581;stroke-linecap:round;stroke-linejoin:round;stroke-opacity:1"
         d="m 280.35672,464.12176 c 32.17964,-15.76982 69.93281,-18.23191 104.63551,-10.45428 66.78141,-5.7102 134.02315,-7.91289 200.99047,-4.5251 26.44455,0.15396 50.84373,14.92286 68.85787,33.36555 10.38181,13.77352 21.22465,25.4683 28.18631,39.95706 4.01068,11.66581 -6.96903,19.78638 -16.64457,22.95143 -12.34336,5.79913 -24.68673,11.59825 -37.0301,17.39737 -8.42264,16.7637 -16.84527,33.52741 -25.26791,50.29111 6.14892,21.54058 -31.08074,22.84987 -25.04478,1.76179 6.32379,-10.4513 7.9548,-23.08419 12.11894,-34.54277 -12.5712,7.53066 -25.1424,15.06133 -37.7136,22.59199 -0.49075,18.76227 -32.56271,26.89915 -35.48683,8.51077 1.34783,-16.50386 13.31299,-11.66414 18.32048,-19.7648 5.18792,-6.17728 10.37583,-12.35457 15.56374,-18.53186 -9.65411,5.30561 -28.32346,14.95466 -37.97757,20.26027 -18.56968,21.05061 -40.48809,-8.21748 -17.14848,-13.07875 9.10335,-2.54683 24.72253,-6.1012 10.97864,-6.30075 -19.71939,-0.12943 -40.08122,-1.49623 -59.07362,-5.23591 -8.34957,4.34834 -26.92544,12.11056 -35.275,16.4589 l -0.014,27.41873 c 14.06,23.58729 -32.37041,23.38982 -16.29688,1.98476 l -3.67263,-27.18474 c -13.84509,7.25971 -20.35403,17.87091 -30.85263,32.01302 -7.63243,20.3264 -40.00556,-11.30932 -9.06441,-18.48601 l 23.31953,-23.86019 c -10.47023,4.7382 -20.67452,10.73727 -31.66682,13.80872 -8.46262,7.74031 -27.47078,8.12005 -24.22478,-8.23807 1.85975,-7.82541 4.60827,-10.18041 17.52799,-9.70804 7.95535,-2.33921 16.74701,-4.63981 23.24618,-8.59281 -23.42256,-7.90334 -53.02696,-5.83834 -74.3185,5.54115 -13.658,1.64848 -13.91202,-16.70582 -29.90655,-9.77105 -24.75173,3.14256 -20.14833,-28.89858 -10.94289,-42.21234 10.10884,-14.09984 -2.66347,-35.07304 15.19952,-46.92112 5.10288,-4.48876 11.84246,-7.16198 18.67735,-6.90403 z"
         id="path3259"
         sodipodi:nodetypes="sccccccccccccccccccccccccccccccccss" /><path
         style="display:inline;fill:#058c42;fill-opacity:1;stroke:#000000;stroke-width:1.581;stroke-linecap:round;stroke-linejoin:round;stroke-opacity:1"
         d="m 449.48506,568.325 c 24.83886,-18.32329 51.20469,-35.02797 73.96977,-55.8904 8.51114,-9.98602 17.47212,-28.50221 4.31585,-38.60697 -18.06844,-10.45508 -40.33145,-8.77904 -60.48318,-7.59038 -7.40984,0.76813 -14.77217,2.02187 -22.00358,3.81591"
         id="path3257" /><path
         style="display:inline;fill:#058c42;fill-opacity:1;stroke:#000000;stroke-width:1.581;stroke-linecap:round;stroke-linejoin:round;stroke-opacity:1"
         d="m 361.64777,564.38915 c 23.05669,-12.02264 41.4582,-29.65794 66.56544,-37.06862 15.68132,-7.03718 28.54134,-7.29035 47.04394,-21.11153"
         id="path3255"
         sodipodi:nodetypes="ccc" /><path
         style="display:inline;fill:#058c42;fill-opacity:1;stroke:#000000;stroke-width:1.581;stroke-linecap:round;stroke-linejoin:round;stroke-opacity:1"
         d="m 512.67697,575.41024 22.94228,-14.59144 c -19.38226,-5.07601 -14.97535,-28.59747 0.38749,-35.88532 11.51473,-9.11488 22.49029,-20.54826 36.76404,-25.00608"
         id="path3253"
         sodipodi:nodetypes="cccc" /><path
         style="display:inline;fill:#058c42;fill-opacity:1;stroke:#000000;stroke-width:1.581;stroke-linecap:round;stroke-linejoin:round;stroke-opacity:1"
         d="m 535.61925,560.8188 c 16.08666,2.74636 33.07013,5.87414 49.19473,1.79457"
         id="path3251" /><path
         style="display:inline;fill:#058c42;fill-opacity:1;stroke:#000000;stroke-width:1.581;stroke-linecap:round;stroke-linejoin:round;stroke-opacity:1"
         d="m 675.01438,508.8464 c -26.34997,-3.84867 -55.99321,3.89702 -81.10571,7.83057"
         id="path3249"
         sodipodi:nodetypes="cc" /><path
         style="display:inline;fill:none;fill-opacity:1;stroke:#000000;stroke-width:1.581;stroke-linecap:round;stroke-linejoin:round;stroke-opacity:1"
         d="m 257.42275,560.15925 c 19.70505,-7.96156 51.07566,-22.4961 62.73764,-40.8322 2.04129,-3.8763 3.14461,-8.48461 1.91476,-12.79811"
         id="path3245"
         sodipodi:nodetypes="ccc" /><path
         style="display:inline;fill:#058c42;fill-opacity:1;stroke:#000000;stroke-width:1.581;stroke-linecap:round;stroke-linejoin:round;stroke-opacity:1"
         d="m 260.29555,500.9384 c 3.04678,-10.22276 8.78523,-22.39141 20.41071,-24.48941"
         id="path2805" /></g></g></svg>
